<svg xmlns:xlink="http://www.w3.org/1999/xlink" viewBox="0 0 1483.0647474747475 1560.585" style="max-height: 500px" version="1.1" xml:space="preserve" xmlns="http://www.w3.org/2000/svg" width="1483.0647474747475" height="1560.585">
 <defs>
  <style type="text/css">
   
    .fil0 {fill:#0000C2}
    .fil2 {fill:black;fill-rule:nonzero}
    .fil1 {fill:#0000C2;fill-rule:nonzero}
   
  </style>
 </defs>
 <g id="Слой_x0020_1">
  <metadata id="CorelCorpID_0Corel-Layer"/>
  <g id="_2228872667232">
   <g>
    <path d="M703.92 748.12l-31.79 0.02 0.01 -77.73 -47.3 -0.49 0.42 78.99 -40.35 -0.47 0.73 -78.54 -48.59 0.65c1.21,102.26 -12.97,192.02 35.71,269.85 67.43,107.84 204.92,146.9 314.98,79.1 16.14,-9.94 29.33,-20.72 42.53,-33.42 39.88,-38.37 70.33,-102.02 70.8,-161.41 0.41,-51.41 0.08,-102.94 0.31,-154.39l-48.32 0.29 0.46 77.69 -38.55 -0.15 -0.35 -77.5 -46.96 -0.24 0.11 77.49 -34.64 0.26 -0.19 -77.48 -46.69 -0.27 0.43 77.85 -32.84 0.71c-2.11,-2.07 -3.05,-0.96 -3.25,-10.73l1.25 -363.18c-0.14,-123.99 -1.88,-249.62 0.2,-373.78l-45.32 0.36c2.09,29.15 0.81,65.01 0.8,94.82l-0.01 631.08c0.2,17.2 1.81,18.16 -3.59,20.62z" class="fil0"/>
    <path d="M624.68 412.56c-11.32,0.9 -29.13,2.39 -38.01,-1.37 -3.81,-14.56 -0.82,-239.62 -0.97,-274.94l-48.99 0.08 0.65 322.64 134.67 0.79 0.16 -400.65 -47.88 0.11 0.37 353.34z" class="fil0"/>
    <polygon points="867.86,459.81 1001.17,459.49 1001.26,135.82 953.16,136.3 953.33,412.84 915.21,412.67 914.82,59.29 868.84,59.38" class="fil0"/>
    <path d="M786.62 545.17l46.24 0.85c-1.04,-47.54 3.53,-521.38 -1.22,-545.89l-44.9 -0.13 -0.12 545.17z" class="fil0"/>
    <path d="M1201.45 444.45l-65.43 0.56c-49.37,-50.61 -92.41,5.92 -71.23,41.37 22.45,37.6 67.94,7.91 67.95,7.9 6.6,-2.16 53.38,-0.98 63.02,-1.21 17.58,47.53 97.21,41.82 103.05,-14.6 5.68,-54.94 -66.58,-82.93 -97.36,-34.02z" class="fil0"/>
    <path d="M1193.77 255.4l-160.69 -0.07 -0.61 48.03 154.21 -0.06c10.39,0 4.1,9.04 23.33,20.89 65.68,40.49 117.31,-70.34 43.18,-93.83 -26.41,-8.37 -53.48,7.39 -59.42,25.04z" class="fil0"/>
    <path d="M505.5 370.79l0.58 -48.8 -155.8 0.17c-7.68,-14.74 -12.4,-23.44 -31.54,-29.02 -60,-17.5 -90.78,64.72 -38.93,93.8 14.24,7.99 36.24,7.19 50.3,-1.01 5.68,-3.31 15.29,-12.68 17.79,-13.84 7.78,-3.65 141.61,-1.25 157.6,-1.3z" class="fil0"/>
    <polygon points="786.91,631.36 1001.12,632.48 1001.39,584.06 786.33,584.08" class="fil0"/>
    <path d="M448.57 159.43c-60.31,18.64 -29.79,104.35 27.97,85.89 55.72,-17.81 31.72,-104.34 -27.97,-85.89z" class="fil0"/>
    <polygon points="537.07,632.03 672.29,632.49 672.85,584.15 536.65,584.07" class="fil0"/>
    <polygon points="536.93,545.53 671.82,546.01 672.53,498.97 537.31,498.04" class="fil0"/>
    <polygon points="867.77,545.86 1000.97,546 1001.06,498.09 867.98,498.11" class="fil0"/>
    <path d="M1059.84 66.24c-57.56,18.16 -30.01,99.19 23.98,83.56 18.8,-5.45 38.32,-27.27 29.69,-54.08 -6.29,-19.51 -28.57,-37.4 -53.67,-29.48z" class="fil0"/>
    <path d="M283.25 427.35c-52.8,17.77 -25.63,90.75 23.71,76.88 52.78,-14.85 28.73,-94.52 -23.71,-76.88z" class="fil0"/>
    <path d="M406.29 427.43c-12.19,3.77 -17.37,7.43 -22.63,18.28 -4.85,10.01 -5.59,24.39 -1.37,35.17 7.02,17.92 29.28,29.29 51.9,21.71 45.55,-15.26 28.03,-92.43 -27.9,-75.16z" class="fil0"/>
    <path d="M1165.51 614.01l0 271.95c0,95.79 -39.18,182.87 -102.28,245.97 -63.11,63.11 -150.18,102.28 -245.98,102.28l-95.5 0c-95.8,0 -182.87,-39.17 -245.98,-102.28 -63.1,-63.1 -102.27,-150.18 -102.27,-245.97l0 -271.95 53.87 0 0 271.95c0,80.92 33.13,154.51 86.5,207.88 53.36,53.37 126.95,86.5 207.88,86.5l95.5 0c80.93,0 154.52,-33.13 207.89,-86.5 53.36,-53.37 86.49,-126.96 86.49,-207.88l0 -271.95 53.88 0z" class="fil1"/>
    <polygon points="742.66,1219.02 796.34,1219.02 796.34,1468.04 742.66,1468.04" class="fil0"/>
    <polygon points="931.23,1414.35 931.23,1468.04 607.77,1468.04 607.77,1414.35" class="fil0"/>
   </g>
   <path d="M103.21 1613.57l70.41 0 0 330.36c-12.22,9.32 -26.05,16.15 -41.48,20.49 -15.43,4.34 -30.54,6.51 -45.33,6.51 -14.79,0 -29.9,-2.17 -45.33,-6.51 -15.44,-4.34 -29.26,-11.17 -41.48,-20.49l0 -128.29 70.41 0 0 100.8c0,3.21 1.77,4.82 5.31,4.82l22.18 0c3.54,0 5.31,-1.61 5.31,-4.82l0 -302.87zm341.32 350.61l-70.41 0 0 -137.93 -32.79 0 0 137.93 -70.41 0 0 -330.35c12.21,-9.33 26.04,-16.16 41.47,-20.5 15.43,-4.34 30.55,-6.51 45.33,-6.51 14.79,0 29.91,2.17 45.34,6.51 15.43,4.34 29.25,11.17 41.47,20.5l0 330.35zm-70.41 -190.98l0 -111.88c0,-3.22 -1.77,-4.83 -5.3,-4.83l-22.19 0c-3.53,0 -5.3,1.61 -5.3,4.83l0 111.88 32.79 0zm238.12 0.48l27.01 0c3.21,0 4.82,-1.6 4.82,-4.82l0 -101.76c0,-4.5 -2.25,-6.75 -6.75,-6.75l-25.08 0 0 113.33zm31.83 58.36c0,-3.22 -1.61,-4.83 -4.82,-4.83l-27.01 0 0 136.97 -70.41 0 0 -350.61 80.06 0c18.65,0 36.25,1.69 52.81,5.06 16.56,3.38 30.46,8.93 41.71,16.64l0 141.79c-3.21,4.18 -7.23,8.36 -12.05,12.54 -4.83,4.18 -9.81,8.04 -14.95,11.57 5.14,3.54 10.12,7.24 14.95,11.1 4.82,3.85 8.84,7.71 12.05,11.57l0 140.34 -72.34 0 0 -132.14zm272.85 -218.47l70.41 0 0 274.89c0,7.72 -1.45,13.91 -4.34,18.57 -2.9,4.66 -7.24,9.57 -13.02,14.71l-49.68 42.44 -39.54 0 -49.68 -42.44c-6.43,-4.5 -10.93,-9.24 -13.5,-14.22 -2.57,-4.99 -3.86,-11.34 -3.86,-19.06l0 -274.89 70.41 0 0 284.06c0,3.21 1.77,4.82 5.31,4.82l22.18 0c3.54,0 5.31,-1.61 5.31,-4.82l0 -284.06zm240.05 350.61l-70.9 0 0 -350.61 70.9 0 0 350.61zm166.26 -221.84c0,3.53 0.24,5.7 0.73,6.51 0.48,0.8 1.68,1.69 3.61,2.65l95.49 45.33c1.61,6.43 2.41,15.11 2.41,26.05l0 121.05c-12.21,9.32 -25.88,16.15 -40.99,20.49 -15.11,4.34 -30.06,6.51 -44.85,6.51 -14.79,0 -29.66,-2.17 -44.61,-6.51 -14.95,-4.34 -28.53,-11.17 -40.75,-20.49l0 -89.22 69.93 0 0 61.73c0,3.21 1.76,4.82 5.3,4.82l21.7 0c3.54,0 5.31,-1.61 5.31,-4.82l0 -74.27c0,-4.51 -0.24,-7.4 -0.73,-8.69 -0.48,-1.28 -2.49,-2.73 -6.02,-4.33l-93.57 -44.37c-0.64,-3.22 -1.12,-7.4 -1.44,-12.54 -0.32,-5.15 -0.48,-9.65 -0.48,-13.51l0 -124.9c12.22,-9.33 25.8,-16.16 40.75,-20.5 14.95,-4.34 29.82,-6.51 44.61,-6.51 14.79,0 29.74,2.17 44.85,6.51 15.11,4.34 28.78,11.17 40.99,20.5l0 91.63 -69.93 0 0 -64.14c0,-3.22 -1.77,-4.83 -5.3,-4.83l-21.7 0c-3.54,0 -5.31,1.61 -5.31,4.83l0 81.02zm-1217.61 301.2l70.41 0 0 274.89c0,7.72 -1.45,13.91 -4.34,18.57 -2.9,4.66 -7.24,9.56 -13.02,14.71l-49.68 42.44 -39.54 0 -49.68 -42.44c-6.43,-4.5 -10.93,-9.25 -13.5,-14.23 -2.57,-4.98 -3.86,-11.33 -3.86,-19.05l0 -274.89 70.41 0 0 284.05c0,3.22 1.77,4.83 5.31,4.83l22.18 0c3.54,0 5.31,-1.61 5.31,-4.83l0 -284.05zm382.41 0l0 330.35c-12.22,9.33 -26.04,16.16 -41.48,20.5 -15.43,4.34 -30.54,6.51 -45.33,6.51 -14.79,0 -29.9,-2.17 -45.34,-6.51 -15.43,-4.34 -29.25,-11.17 -41.47,-20.5l0 -330.35 70.41 0 0 302.86c0,3.22 1.77,4.83 5.31,4.83l22.18 0c3.54,0 5.3,-1.61 5.3,-4.83l0 -302.86 70.42 0zm240.62 210.75c0,-3.22 -1.61,-4.82 -4.82,-4.82l-27.01 0 0 97.9 25.08 0c4.5,0 6.75,-2.25 6.75,-6.75l0 -86.33zm70.89 117.67c-11.25,7.72 -25.23,13.35 -41.95,16.88 -16.72,3.54 -34.57,5.31 -53.53,5.31l-77.65 0 0 -350.61 77.65 0c18.96,0 36.81,1.68 53.53,5.06 16.72,3.38 30.7,8.92 41.95,16.64l0 134.07c-3.21,4.18 -7.23,8.36 -12.05,12.54 -4.82,4.18 -9.81,8.04 -14.95,11.57 5.14,3.54 10.13,7.24 14.95,11.1 4.82,3.85 8.84,7.71 12.05,11.57l0 125.87zm-70.89 -274.89c0,-4.5 -2.25,-6.75 -6.75,-6.75l-25.08 0 0 105.61 27.01 0c3.21,0 4.82,-1.6 4.82,-4.82l0 -94.04zm383.38 297.08l-70.9 0 0 -181.34 -32.79 -53.05 0 234.39 -70.41 0 0 -350.61 59.32 0 44.36 73.78 0 -73.78 70.42 0 0 350.61zm236.28 -142.27c3.54,0 5.3,-1.61 5.3,-4.82l0 -203.52 70.42 0 0 231.49c-6.76,6.11 -14.71,11.09 -23.88,14.95 -9.16,3.85 -18.73,6.59 -28.69,8.2l0 95.97 -68.48 0 0 -95.97c-9.97,-1.61 -19.54,-4.35 -28.7,-8.2 -9.16,-3.86 -17.12,-8.84 -23.87,-14.95l0 -231.49 70.41 0 0 203.52c0,3.21 1.77,4.82 5.31,4.82l22.18 0z" class="fil2"/>
  </g>
 </g>
</svg>